<?xml version="1.0" standalone="no"?>
<!DOCTYPE svg PUBLIC "-//W3C//DTD SVG 20010904//EN"
 "http://www.w3.org/TR/2001/REC-SVG-20010904/DTD/svg10.dtd">
<svg version="1.0" xmlns="http://www.w3.org/2000/svg"
 width="198.000000pt" height="198.000000pt" viewBox="0 0 198.000000 198.000000"
 preserveAspectRatio="xMidYMid meet">
<metadata>
Created by potrace 1.14, written by Peter Selinger 2001-2017
</metadata>
<g transform="translate(0.000000,198.000000) scale(0.100000,-0.100000)"
fill="#000000" stroke="none">
<path d="M848 1456 c-1 -2 -34 -6 -73 -9 -162 -14 -375 -71 -500 -134 -267
-136 -344 -337 -193 -508 114 -131 390 -243 663 -271 33 -3 74 -8 90 -10 39
-4 258 -4 310 0 344 30 618 131 748 275 104 115 109 241 14 364 -33 43 -127
112 -205 151 -106 53 -283 106 -407 121 -27 4 -58 9 -69 12 -19 5 -372 14
-378 9z"/>
</g>
</svg>
